# xmcd
#
# Track frame offsets: 
#        150
#        18772
#        36037
#        57072
#        77677
#        96947
#        123840
#        143687
#        161700
#        177630
#        196475
#        213762
#        229847
#        253242
#
# Disc length: 3649 seconds
#
# Revision: 0
# Processed by: cddbd v1.5.1PL2 Copyright (c) Steve Scherf et al.
# Submitted via: ExactAudioCopy v0.95b3
#
DISCID=b80e3f0e
DTITLE=George Cole - Behold The Man
DYEAR=1997
DGENRE=R&B
TTITLE0=Do My Thing
TTITLE1=Check Me
TTITLE2=Dope
TTITLE3=Can't Get Enough
TTITLE4=Do With Me (As You Please)
TTITLE5=Sexy...
TTITLE6=Stop Running
TTITLE7=To Think
TTITLE8=Baby Come To Me
TTITLE9=Tell Me How
TTITLE10=Real Woman
TTITLE11=Don't Stop
TTITLE12=First Love
TTITLE13=I Appreciate
EXTD=
EXTT0=
EXTT1=
EXTT2=
EXTT3=
EXTT4=
EXTT5=
EXTT6=
EXTT7=
EXTT8=
EXTT9=
EXTT10=
EXTT11=
EXTT12=
EXTT13=
PLAYORDER=
